<svg width="2048" height="512" version="1.1" viewBox="0 0 541.88 135.47" xmlns="http://www.w3.org/2000/svg"><defs><linearGradient id="b" x1="1344.2" x2="1323.6" y1="406.61" y2="122.49" gradientTransform="matrix(.30868 0 0 .30868 -156.26 -6.3122)" gradientUnits="userSpaceOnUse"><stop stop-color="#fd7d00" offset="0"/><stop stop-color="#f8de68" offset="1"/></linearGradient><linearGradient id="a" x1="547.85" x2="2207.8" y1="226.81" y2="226.81" gradientTransform="matrix(.30868 0 0 .30868 -156.26 -.13849)" gradientUnits="userSpaceOnUse"><stop stop-color="#fd4949" offset="0"/><stop stop-color="#fd7d00" offset=".54413"/><stop stop-color="#f8de68" offset="1"/></linearGradient><filter id="c" x="-.0068549" y="-.048113" width="1.0137" height="1.0962" style="color-interpolation-filters:sRGB"><feGaussianBlur stdDeviation="1.4678334"/></filter></defs><path d="m51.914 40.041c-11.254 0-20.781 3.4149-27.485 9.5565-6.7043 6.1417-10.447 14.966-10.447 25.092 0 9.7545 3.4715 18.198 9.618 24.092 6.1465 5.8935 14.856 9.1713 24.941 9.1713 10.129 0 19.087-3.1205 26.377-9.2894l0.12662-0.10733-3.0362 2.3573v6.1737h22.681l3.6325-12.364h16.349l3.8917 12.364h41.927v-23.934l7.4717 14.684h15.146l7.6972-15.759v25.01h20.699v-66.18h-19.243l-16.087 31.472-17.017-31.472h-19.368v59.474l-20.731-59.474h-23.495l-19.551 54.932v-30.461h-33.151v18.796h12.71v3.835c-1.396 0.45226-3.0689 0.79944-5.2132 0.79944-4.7374 0-8.196-1.4602-10.598-3.9737-2.4023-2.5134-3.8688-6.258-3.8688-11.357 0-4.9788 1.3521-8.2524 3.7663-10.468 2.4142-2.2151 6.2317-3.5637 11.824-3.5637 4.7178 0 10.544 0.94897 14.032 2.162l2.903 1.0099 6.0971-17.281v-6.1731c-5.6542-2.6834-15.352 0.87791-22.599 0.87791zm267.61 0c-9.989 0-18.611 3.4258-24.646 9.5451s-9.3967 14.831-9.3967 24.93c0 9.8 3.2772 18.254 9.1507 24.188 5.8736 5.9341 14.257 9.2484 23.942 9.2484 10.064 0 18.742-3.3911 24.825-9.4745 6.0834-6.0834 9.4739-14.763 9.4739-24.827 0-9.8449-3.299-18.342-9.2165-24.308-5.9175-5.9658-14.363-9.3015-24.133-9.3015zm-101.92 0.86576v66.18h49.234v-19.316h-28.102v-4.5483h25.682v-19.316h-25.682v-3.6849h28.102v-19.316zm130.93 0 23.363 66.18h20.357l22.146-62.217v62.217h49.234v-19.316h-28.102v-4.5483h25.68v-19.316h-25.68v-3.6849h28.102v-19.316l-48.862-3.0953-21.082 3.0953-10.862 34.644-10.154-34.644-24.14-6.1728zm119.39 0v66.18h21.132v-20.491h1.7773l11.673 20.491h25.389v-6.1737l-16.418-19.736c5.9727-4.3571 9.7434-11.06 9.7434-19.026 0-6.5304-2.4985-12.151-7.0618-15.827-4.5632-3.6763-10.891-5.4164-18.418-5.4164zm-149.35 18.452c3.9289 0 6.7977 1.377 8.9162 3.8784 2.1186 2.5014 3.4721 6.3079 3.4721 11.279 0 4.6699-1.2683 8.2163-3.2261 10.534-1.9578 2.3175-4.5891 3.5842-8.2121 3.5842-3.8374 0-6.6406-1.3508-8.7185-3.8188-2.0778-2.468-3.413-6.2335-3.413-11.165 0-4.7262 1.2617-8.3396 3.1899-10.687s4.481-3.6047 7.9914-3.6047zm170.48 0.77713h4.6097c2.3194 0 3.8124 0.56467 4.6188 1.2166 0.8064 0.65198 1.201 1.3772 1.201 2.8734 0 1.419-0.36082 2.138-0.83863 2.6069s-1.2856 0.87722-2.9054 0.87722h-6.6855zm-382.7 7.7104 2.2349 7.2143h-4.3818z" style="color-rendering:auto;color:#000000;dominant-baseline:auto;fill:#121212;filter:url(#c);font-feature-settings:normal;font-variant-alternates:normal;font-variant-caps:normal;font-variant-ligatures:normal;font-variant-numeric:normal;font-variant-position:normal;image-rendering:auto;isolation:auto;mix-blend-mode:normal;opacity:.5;shape-padding:0;shape-rendering:auto;solid-color:#000000;text-decoration-color:#000000;text-decoration-line:none;text-decoration-style:solid;text-indent:0;text-orientation:mixed;text-transform:none;white-space:normal"/><path d="m51.914 36.866c-11.254 0-20.781 3.4149-27.485 9.5565-6.7043 6.1417-10.447 14.966-10.447 25.092 0 9.7545 3.4715 18.198 9.618 24.092 6.1465 5.8935 14.856 9.1713 24.941 9.1713 10.129 0 19.087-3.1205 26.377-9.2894l0.12662-0.10733-3.0362 2.3573v6.1737h22.681l3.6325-12.364h16.349l3.8917 12.364h41.927v-23.934l7.4717 14.684h15.146l7.6972-15.759v25.01h20.699v-66.18h-19.243l-16.087 31.472-17.017-31.472h-19.368v59.474l-20.731-59.474h-23.495l-19.551 54.932v-30.461h-33.151v18.796h12.71v3.835c-1.396 0.45226-3.0689 0.79944-5.2132 0.79944-4.7374 0-8.196-1.4602-10.598-3.9737-2.4023-2.5134-3.8688-6.258-3.8688-11.357 0-4.9788 1.3521-8.2524 3.7663-10.468 2.4142-2.2151 6.2317-3.5637 11.824-3.5637 4.7178 0 10.544 0.94897 14.032 2.162l2.903 1.0099 6.0971-17.281v-6.1731c-5.6542-2.6834-15.352 0.87791-22.599 0.87791zm267.61 0c-9.989 0-18.611 3.4258-24.646 9.5451s-9.3967 14.831-9.3967 24.93c0 9.8 3.2772 18.254 9.1507 24.188 5.8736 5.9341 14.257 9.2484 23.942 9.2484 10.064 0 18.742-3.3911 24.825-9.4745 6.0834-6.0834 9.4739-14.763 9.4739-24.827 0-9.8449-3.299-18.342-9.2165-24.308-5.9175-5.9658-14.363-9.3015-24.133-9.3015zm-101.92 0.86576v66.18h49.234v-19.316h-28.102v-4.5483h25.682v-19.316h-25.682v-3.6849h28.102v-19.316zm130.93 0 23.363 66.18h20.357l22.146-62.217v62.217h49.234v-19.316h-28.102v-4.5483h25.68v-19.316h-25.68v-3.6849h28.102v-19.316l-48.862-3.0953-21.082 3.0953-10.862 34.644-10.154-34.644-24.14-6.1728zm119.39 0v66.18h21.132v-20.491h1.7773l11.673 20.491h25.389v-6.1737l-16.418-19.736c5.9727-4.3571 9.7434-11.06 9.7434-19.026 0-6.5304-2.4985-12.151-7.0618-15.827-4.5632-3.6763-10.891-5.4164-18.418-5.4164zm-149.35 18.452c3.9289 0 6.7977 1.377 8.9162 3.8784 2.1186 2.5014 3.4721 6.3079 3.4721 11.279 0 4.6699-1.2683 8.2163-3.2261 10.534-1.9578 2.3175-4.5891 3.5842-8.2121 3.5842-3.8374 0-6.6406-1.3508-8.7185-3.8188-2.0778-2.468-3.413-6.2335-3.413-11.165 0-4.7262 1.2617-8.3396 3.1899-10.687s4.481-3.6047 7.9914-3.6047zm170.48 0.77713h4.6097c2.3194 0 3.8124 0.56467 4.6188 1.2166 0.8064 0.65198 1.201 1.3772 1.201 2.8734 0 1.419-0.36082 2.138-0.83863 2.6069s-1.2856 0.87722-2.9054 0.87722h-6.6855zm-382.7 7.7104 2.2349 7.2143h-4.3818z" style="color-rendering:auto;color:#000000;dominant-baseline:auto;fill:url(#a);font-feature-settings:normal;font-variant-alternates:normal;font-variant-caps:normal;font-variant-ligatures:normal;font-variant-numeric:normal;font-variant-position:normal;image-rendering:auto;isolation:auto;mix-blend-mode:normal;shape-padding:0;shape-rendering:auto;solid-color:#000000;text-decoration-color:#000000;text-decoration-line:none;text-decoration-style:solid;text-indent:0;text-orientation:mixed;text-transform:none;white-space:normal"/><path d="m51.914 30.692c-11.254 0-20.781 3.4149-27.485 9.5565-6.7043 6.1417-10.447 14.966-10.447 25.092 0 9.7545 3.4715 18.198 9.618 24.092 6.1465 5.8934 14.856 9.1713 24.941 9.1713 10.129 0 19.087-3.1205 26.377-9.2894l0.12662-0.10733-3.0362 8.531h22.681l3.6325-12.364h16.349l3.8917 12.364h41.927v-23.934l7.4717 14.684h15.146l7.6972-15.759v25.01h20.699v-66.18h-19.243l-16.087 31.472-17.017-31.472h-19.368v60.709l-20.731-60.709h-23.495l-19.551 54.932v-30.461h-33.151v18.796h12.71v3.835c-1.396 0.45225-3.0689 0.79943-5.2132 0.79943-4.7374 0-8.196-1.4602-10.598-3.9737-2.4023-2.5134-3.8688-6.258-3.8688-11.357 0-4.9788 1.3521-8.2524 3.7663-10.467 2.4142-2.2151 6.2317-3.5637 11.824-3.5637 4.7178 0 10.544 0.94896 14.032 2.162l2.903 1.0098 6.0971-17.281-2.5129-1.1913c-5.6542-2.6834-12.839-4.1039-20.086-4.1039zm267.61 0c-9.989 0-18.611 3.4258-24.646 9.5451s-9.3967 14.831-9.3967 24.93c0 9.8 3.2772 18.254 9.1507 24.188 5.8736 5.934 14.257 9.2484 23.942 9.2484 10.064 0 18.742-3.3911 24.825-9.4745 6.0834-6.0834 9.4739-14.763 9.4739-24.827 0-9.8449-3.299-18.342-9.2165-24.308-5.9175-5.9658-14.363-9.3015-24.133-9.3015zm-101.92 0.86576v66.18h49.234v-19.316h-28.102v-4.5483h25.682v-19.316h-25.682v-3.6849h28.102v-19.316zm130.93 0 23.363 66.18h20.357l22.146-62.217v62.217h49.234v-19.316h-28.102v-4.5483h25.68v-19.316h-25.68v-3.6849h28.102v-19.316h-69.944l-10.862 34.644-10.154-34.644zm119.39 0v66.18h21.132v-20.491h1.7773l11.673 20.491h25.389l-16.418-25.91c5.9727-4.3571 9.7434-11.06 9.7434-19.026 0-6.5304-2.4985-12.151-7.0618-15.827-4.5632-3.6763-10.891-5.4164-18.418-5.4164zm-149.35 18.452c3.9289 0 6.7977 1.377 8.9162 3.8784 2.1186 2.5014 3.4721 6.3079 3.4721 11.279 0 4.6699-1.2683 8.2163-3.2261 10.534-1.9578 2.3176-4.5891 3.5842-8.2121 3.5842-3.8374 0-6.6406-1.3508-8.7185-3.8188s-3.413-6.2335-3.413-11.165c0-4.7262 1.2617-8.3396 3.1899-10.687s4.481-3.6047 7.9914-3.6047zm170.48 0.77714h4.6097c2.3194 0 3.8124 0.56466 4.6188 1.2166 0.8064 0.65198 1.201 1.3772 1.201 2.8734 0 1.419-0.36082 2.138-0.83863 2.6069-0.47781 0.46889-1.2856 0.87722-2.9054 0.8772h-6.6855zm-382.7 7.7104 2.2349 7.2143h-4.3818z" style="color-rendering:auto;color:#000000;dominant-baseline:auto;fill:url(#b);font-feature-settings:normal;font-variant-alternates:normal;font-variant-caps:normal;font-variant-ligatures:normal;font-variant-numeric:normal;font-variant-position:normal;image-rendering:auto;isolation:auto;mix-blend-mode:normal;shape-padding:0;shape-rendering:auto;solid-color:#000000;text-decoration-color:#000000;text-decoration-line:none;text-decoration-style:solid;text-indent:0;text-orientation:mixed;text-transform:none;white-space:normal"/><g transform="matrix(1.1666 0 0 1.1666 -156.26 -6.3122)" aria-label="GAME OVER"><path d="m175.55 87.283c8.1526 0 15.119-2.4458 20.9-7.3374v-23.865h-23.124v10.821h10.895v7.7821c-1.7788 0.96349-4.2246 1.4823-7.115 1.4823-9.2643 0-15.045-6.0033-15.045-15.786 0-9.5608 5.5586-14.675 16.009-14.675 4.3728 0 9.4867 0.81526 12.896 2.0011l3.5575-10.08c-4.3728-2.0752-10.228-3.2611-16.083-3.2611-18.232 0-29.868 10.969-29.868 27.052 0 15.49 10.821 25.866 26.978 25.866z" style="stroke-width:.22679"/><path d="m199.41 86.542h13.711l3.1128-10.598h17.936l3.3352 10.598h14.156l-17.565-51.436h-16.379zm20.307-22.16 5.3363-17.936 5.5586 17.936z" style="stroke-width:.22679"/><path d="m256.41 86.542h12.451v-28.905l10.673 20.974h9.709l10.895-22.309v30.239h12.451v-51.436h-12.229l-15.342 30.016-16.231-30.016h-12.377z" style="stroke-width:.22679"/><path d="m323.11 86.542h36.909v-11.265h-24.087v-9.1902h22.012v-11.265h-22.012v-8.4491h24.087v-11.265h-36.909z" style="stroke-width:.22679"/><path d="m407.01 87.283c16.083 0 26.755-10.673 26.755-26.755 0-15.712-10.376-26.163-25.94-26.163-15.935 0-26.533 10.747-26.533 26.904 0 15.638 10.302 26.014 25.718 26.014zm0.81527-11.265c-7.9303 0-13.044-6.0774-13.044-15.49 0-9.042 4.8175-14.897 12.229-14.897 8.0785 0 13.267 6.1515 13.267 15.638 0 8.9679-4.8916 14.749-12.451 14.749z" style="stroke-width:.22679"/><path d="m454.59 86.542h13.711l18.306-51.436h-13.267l-11.34 36.168-10.598-36.168h-14.971z" style="stroke-width:.22679"/><path d="m491.8 86.542h36.909v-11.265h-24.087v-9.1902h22.012v-11.265h-22.012v-8.4491h24.087v-11.265h-36.909z" style="stroke-width:.22679"/><path d="m537.67 86.542h12.822v-17.565h5.7068l10.006 17.565h15.416l-12.822-20.233c5.781-3.1128 9.2644-8.6714 9.2644-15.638 0-9.9314-7.115-15.564-19.196-15.564h-21.197zm12.822-28.46v-11.784h6.5962c4.8175 0 7.6338 2.2976 7.6338 6.1515 0 3.4834-2.0752 5.6327-5.8551 5.6327z" style="stroke-width:.22679"/></g></svg>
